<svg xmlns="http://www.w3.org/2000/svg" viewBox="0 0 100 100" width="100" height="100" fill="currentColor">
  <g>
    <circle cx="50" cy="12" r="2.5"/>
    <circle cx="65" cy="15" r="2"/>
    <circle cx="78" cy="24" r="2.2"/>
    <circle cx="86" cy="37" r="2"/>
    <circle cx="88" cy="52" r="2.5"/>
    <circle cx="84" cy="66" r="2"/>
    <circle cx="75" cy="78" r="2.3"/>
    <circle cx="62" cy="85" r="2"/>
    <circle cx="48" cy="87" r="2.5"/>
    <circle cx="34" cy="85" r="2"/>
    <circle cx="22" cy="78" r="2.2"/>
    <circle cx="14" cy="66" r="2"/>
    <circle cx="11" cy="52" r="2.5"/>
    <circle cx="13" cy="37" r="2"/>
    <circle cx="21" cy="24" r="2.2"/>
    <circle cx="34" cy="15" r="2"/>
    <circle cx="50" cy="28" r="1.8" opacity="0.7"/>
    <circle cx="66" cy="34" r="1.8" opacity="0.7"/>
    <circle cx="72" cy="50" r="1.8" opacity="0.7"/>
    <circle cx="66" cy="66" r="1.8" opacity="0.7"/>
    <circle cx="50" cy="72" r="1.8" opacity="0.7"/>
    <circle cx="34" cy="66" r="1.8" opacity="0.7"/>
    <circle cx="28" cy="50" r="1.8" opacity="0.7"/>
    <circle cx="34" cy="34" r="1.8" opacity="0.7"/>
    <circle cx="50" cy="50" r="4"/>
  </g>
</svg>
